<svg width="18" height="18" viewBox="0 0 18 18" fill="none" xmlns="http://www.w3.org/2000/svg">
<path d="M0.833374 4.05908e-05C0.373137 4.05908e-05 4.05908e-05 0.373137 4.05908e-05 0.833374C4.05908e-05 1.29361 0.373137 1.66671 0.833374 1.66671V4.05908e-05ZM2.74382 0.833374L3.54818 0.615528C3.4498 0.252276 3.12016 4.05908e-05 2.74382 4.05908e-05V0.833374ZM5.8483 12.2961L5.04394 12.5139C5.1525 12.9147 5.5396 13.1745 5.95166 13.123L5.8483 12.2961ZM15.4005 11.102L15.5039 11.9289C15.8578 11.8847 16.1443 11.6201 16.2166 11.2709L15.4005 11.102ZM16.8334 4.17666L17.6494 4.3455C17.7002 4.10007 17.6378 3.84482 17.4796 3.65047C17.3213 3.45613 17.084 3.34333 16.8334 3.34333V4.17666ZM3.64929 4.17666L2.84494 4.39451L3.64929 4.17666ZM0.833374 1.66671H2.74382V4.05908e-05H0.833374V1.66671ZM5.95166 13.123L15.5039 11.9289L15.2972 10.2751L5.74494 11.4692L5.95166 13.123ZM16.2166 11.2709L17.6494 4.3455L16.0173 4.00782L14.5845 10.9332L16.2166 11.2709ZM1.93947 1.05122L2.84494 4.39451L4.45365 3.95881L3.54818 0.615528L1.93947 1.05122ZM2.84494 4.39451L5.04394 12.5139L6.65266 12.0782L4.45365 3.95881L2.84494 4.39451ZM16.8334 3.34333H3.64929V5.00999H16.8334V3.34333ZM8.00004 15.4228C8.00004 15.6529 7.81349 15.8394 7.58338 15.8394V17.5061C8.73397 17.5061 9.66671 16.5734 9.66671 15.4228H8.00004ZM7.58338 15.8394C7.35326 15.8394 7.16671 15.6529 7.16671 15.4228H5.50004C5.50004 16.5734 6.43278 17.5061 7.58338 17.5061V15.8394ZM7.16671 15.4228C7.16671 15.1927 7.35326 15.0061 7.58338 15.0061V13.3394C6.43278 13.3394 5.50004 14.2722 5.50004 15.4228H7.16671ZM7.58338 15.0061C7.81349 15.0061 8.00004 15.1927 8.00004 15.4228H9.66671C9.66671 14.2722 8.73397 13.3394 7.58338 13.3394V15.0061ZM14.6667 15.4228C14.6667 15.6529 14.4802 15.8394 14.25 15.8394V17.5061C15.4006 17.5061 16.3334 16.5734 16.3334 15.4228H14.6667ZM14.25 15.8394C14.0199 15.8394 13.8334 15.6529 13.8334 15.4228H12.1667C12.1667 16.5734 13.0995 17.5061 14.25 17.5061V15.8394ZM13.8334 15.4228C13.8334 15.1927 14.0199 15.0061 14.25 15.0061V13.3394C13.0995 13.3394 12.1667 14.2722 12.1667 15.4228H13.8334ZM14.25 15.0061C14.4802 15.0061 14.6667 15.1927 14.6667 15.4228H16.3334C16.3334 14.2722 15.4006 13.3394 14.25 13.3394V15.0061Z" fill="#3B944E"/>
</svg>
